<svg width="80" height="80" viewBox="0 0 80 80" fill="none" xmlns="http://www.w3.org/2000/svg">
<path fill-rule="evenodd" clip-rule="evenodd" d="M36.073 0.177559C31.729 0.586594 26.7951 1.97069 22.7867 3.90472C18.679 5.88646 15.5698 8.02538 12.3758 11.0664C8.90885 14.3677 6.41139 17.7767 4.18004 22.2537C-3.31289 37.2879 -0.561873 55.4175 11.0648 67.6266C22.9445 80.1011 41.7641 83.5558 57.2189 76.0992C61.3266 74.1175 64.4358 71.9786 67.6298 68.9376C71.0967 65.6363 73.5942 62.2272 75.8256 57.7503C82.8407 43.6749 80.9004 26.7753 70.8619 14.5168C62.5413 4.35623 49.3661 -1.07443 36.073 0.177559ZM41.5934 20.527C42.644 21.0196 59.1555 37.5871 59.5515 38.5458C60.4014 40.6043 59.2068 43.0705 57.0464 43.7179C56.1638 43.9821 55.8281 43.9834 54.8797 43.7263C54.2583 43.5579 53.2882 42.6841 49.1677 38.5818C46.4379 35.8637 44.1431 33.64 44.0684 33.64C43.9938 33.64 43.9326 38.7455 43.9326 44.9856C43.9326 52.9453 43.8687 56.5439 43.719 57.0441C43.24 58.6426 41.6576 59.828 40.0028 59.828C38.348 59.828 36.7656 58.6426 36.2866 57.0441C36.1368 56.5439 36.073 52.9453 36.073 44.9856C36.073 38.7455 36.0118 33.64 35.9372 33.64C35.8625 33.64 33.5677 35.8637 30.8378 38.5818C26.7174 42.6841 25.7473 43.5579 25.1258 43.7263C24.1775 43.9834 23.8418 43.9821 22.9592 43.7179C20.7988 43.0705 19.6042 40.6043 20.4541 38.5458C20.8501 37.5871 37.3616 21.0196 38.4122 20.527C38.8239 20.3339 39.5396 20.1759 40.0028 20.1759C40.4659 20.1759 41.1817 20.3339 41.5934 20.527Z" fill="#130F40"/>
</svg>
